HIERARCHY
ROOT root
{
	OFFSET 0.000000 0.000000 0.000000
	CHANNELS 6 Xposition Yposition Zposition Zrotation Yrotation Xrotation
	JOINT lhip
	{
		OFFSET 0.058581 -0.082280 -0.017664
		CHANNELS 3 Zrotation Yrotation Xrotation
		JOINT lknee
		{
			OFFSET 0.043451 -0.386469 0.008037
			CHANNELS 3 Zrotation Yrotation Xrotation
			JOINT lankle
			{
				OFFSET -0.014790 -0.426874 -0.037428
				CHANNELS 3 Zrotation Yrotation Xrotation
				JOINT ltoe
				{
					OFFSET 0.041054 -0.060286 0.122042
					CHANNELS 3 Zrotation Yrotation Xrotation
					End Site
					{
						OFFSET 0.000000 0.000000 0.000000
					}
				}
			}
		}
	}
	JOINT rhip
	{
		OFFSET -0.060310 -0.090513 -0.013543
		CHANNELS 3 Zrotation Yrotation Xrotation
		JOINT rknee
		{
			OFFSET -0.043257 -0.383688 -0.004843
			CHANNELS 3 Zrotation Yrotation Xrotation
			JOINT rankle
			{
				OFFSET 0.019056 -0.420046 -0.034562
				CHANNELS 3 Zrotation Yrotation Xrotation
				JOINT rtoe
				{
					OFFSET -0.034840 -0.062106 0.130323
					CHANNELS 3 Zrotation Yrotation Xrotation
					End Site
					{
						OFFSET 0.000000 0.000000 0.000000
					}
				}
			}
		}
	}
	JOINT lowerback
	{
		OFFSET 0.004439 0.124404 -0.038385
		CHANNELS 3 Zrotation Yrotation Xrotation
		JOINT upperback
		{
			OFFSET 0.004488 0.137956 0.026820
			CHANNELS 3 Zrotation Yrotation Xrotation
			JOINT chest
			{
				OFFSET -0.002265 0.056032 0.002855
				CHANNELS 3 Zrotation Yrotation Xrotation
				JOINT lowerneck
				{
					OFFSET -0.013390 0.211636 -0.033468
					CHANNELS 3 Zrotation Yrotation Xrotation
					JOINT upperneck
					{
						OFFSET 0.010113 0.088937 0.050410
						CHANNELS 3 Zrotation Yrotation Xrotation
						End Site
						{
							OFFSET 0.000000 0.000000 0.000000
						}
					}
				}
				JOINT lclavicle
				{
					OFFSET 0.071702 0.114000 -0.018898
					CHANNELS 3 Zrotation Yrotation Xrotation
					JOINT lshoulder
					{
						OFFSET 0.122921 0.045205 -0.019046
						CHANNELS 3 Zrotation Yrotation Xrotation
						JOINT lelbow
						{
							OFFSET 0.255332 -0.015649 -0.022946
							CHANNELS 3 Zrotation Yrotation Xrotation
							JOINT lwrist
							{
								OFFSET 0.265709 0.012698 -0.007375
								CHANNELS 3 Zrotation Yrotation Xrotation
								End Site
								{
									OFFSET 0.000000 0.000000 0.000000
								}
							}
						}
					}
				}
				JOINT rclavicle
				{
					OFFSET -0.082954 0.112472 -0.023707
					CHANNELS 3 Zrotation Yrotation Xrotation
					JOINT rshoulder
					{
						OFFSET -0.113228 0.046853 -0.008472
						CHANNELS 3 Zrotation Yrotation Xrotation
						JOINT relbow
						{
							OFFSET -0.260127 -0.014369 -0.031269
							CHANNELS 3 Zrotation Yrotation Xrotation
							JOINT rwrist
							{
								OFFSET -0.269108 0.006794 -0.006027
								CHANNELS 3 Zrotation Yrotation Xrotation
								End Site
								{
									OFFSET 0.000000 0.000000 0.000000
								}
							}
						}
					}
				}
			}
		}
	}
}
MOTION
Frames: 13
Frame Time: 0.033333
0.334886 -0.875130 0.979928 -177.906096 0.580238 92.512855 6.404185 4.820651 2.117393 -2.585940 -0.451034 -3.851036 1.505879 10.242876 -10.493132 0.000000 -0.000000 0.000000 -8.411985 -5.841699 -4.022569 2.712258 -7.775811 5.097006 3.459196 -4.946253 -5.931365 0.000000 -0.000000 0.000000 2.583906 0.355127 -6.086384 0.583177 -1.500395 9.047269 -1.736116 0.196642 -4.442008 -2.447877 3.637172 -3.717155 -1.321003 -1.834435 16.357902 -34.481703 -1.100380 3.075748 -52.875982 -7.974472 15.155429 7.139083 -19.191872 -0.143879 -1.326600 -14.577832 -3.357420 34.874717 5.334457 7.110149 50.816756 8.955597 9.110439 -15.471814 14.624687 -21.136694 4.169918 10.829827 -16.703938 
0.335090 -0.875835 0.979796 -177.830841 0.672053 92.609748 6.532029 4.842897 1.908198 -2.609015 -0.457006 -3.757623 1.558126 10.130939 -10.508168 0.000000 -0.000000 0.000000 -8.263252 -5.733521 -4.162912 2.712705 -7.505481 5.096605 3.917411 -5.390002 -5.919433 0.000000 -0.000000 0.000000 2.648805 0.379213 -6.001561 0.525277 -1.505919 8.721436 -1.634528 0.248710 -4.065294 -2.423988 3.518734 -4.175752 -1.513612 -1.824669 16.686974 -34.314227 -0.984039 2.819032 -53.451725 -8.058397 15.157088 7.574978 -18.877653 -0.197590 -1.313247 -13.728482 -2.893888 34.771179 5.335215 7.064516 50.969456 9.116102 9.166293 -15.653715 14.625885 -21.225136 4.277943 10.646474 -16.598446 
0.335117 -0.876698 0.979993 -177.826405 0.739414 92.571460 6.592090 4.889111 1.890722 -2.598719 -0.587969 -3.745826 1.661740 10.196468 -10.490032 0.000000 -0.000000 0.000000 -8.158059 -5.735598 -4.326783 2.632995 -7.443710 5.313839 3.871960 -5.471858 -5.965912 0.000000 -0.000000 0.000000 2.692832 0.392782 -5.659026 0.574025 -1.513337 8.699144 -1.642125 0.358852 -4.216818 -2.427364 3.466563 -4.282366 -1.641260 -1.711008 16.593661 -34.329959 -0.854437 2.553167 -53.834308 -7.730355 15.397858 8.168358 -18.899799 -0.222998 -1.390200 -12.145159 -1.619423 34.841196 5.312807 6.921042 50.863618 9.138541 9.137098 -15.747190 14.603882 -21.534561 4.528909 10.520521 -16.077054 
0.335784 -0.877520 0.980321 -177.865819 0.730916 92.619154 6.528066 4.761204 1.863455 -2.519974 -0.545848 -3.845089 1.729790 10.241470 -10.420986 0.000000 -0.000000 0.000000 -8.183641 -5.797984 -4.541746 2.686398 -7.354949 5.563274 3.855476 -5.564457 -6.062866 0.000000 -0.000000 0.000000 2.727760 0.518559 -5.605080 0.497388 -1.438363 8.863539 -1.713032 0.355247 -4.274293 -2.440210 3.400843 -4.302191 -1.523757 -1.829506 16.505182 -34.678715 -0.420599 2.621453 -53.326106 -7.556517 14.975939 8.693129 -20.035831 -0.467249 -2.670654 -12.392445 -1.194083 34.969738 5.341668 6.859968 50.818795 9.151864 9.043761 -15.819745 14.435152 -21.661498 5.494205 10.611649 -15.953823 
0.335914 -0.877523 0.980329 -177.778119 0.732620 92.627441 6.530168 4.730104 1.865089 -2.500014 -0.567911 -3.886912 1.745401 10.195401 -10.364937 0.000000 -0.000000 0.000000 -8.173550 -5.836801 -4.451855 2.698268 -7.385992 5.428034 3.818823 -5.613128 -6.059493 0.000000 -0.000000 0.000000 2.717631 0.545098 -5.649277 0.490529 -1.499681 8.956282 -1.700759 0.334166 -4.268988 -2.458233 3.436273 -4.293136 -1.499431 -1.827741 16.412453 -34.644656 -0.417318 2.634490 -53.393173 -7.501339 14.928444 8.758059 -20.113215 -0.641496 -2.689926 -12.627914 -1.334192 34.947072 5.366206 6.882695 50.786601 9.139184 9.011321 -15.803617 14.495503 -21.616654 5.612944 10.653035 -15.963546 
0.336244 -0.878386 0.980410 -177.762273 0.719438 92.719438 6.508384 4.748576 1.681515 -2.506149 -0.592375 -3.850800 1.742490 10.198046 -10.284285 0.000000 -0.000000 0.000000 -8.176631 -5.849206 -4.596287 2.731397 -7.406348 5.382503 3.761517 -5.681090 -5.972537 0.000000 -0.000000 0.000000 2.716592 0.590827 -5.591622 0.466798 -1.481184 8.968874 -1.737974 0.357092 -4.276347 -2.478541 3.467419 -4.330499 -1.439549 -1.831917 16.281995 -34.552782 -0.350780 2.577552 -53.516220 -7.478333 14.955216 8.963524 -19.988957 -0.631690 -2.955158 -12.584530 -1.040813 34.998456 5.379194 6.859096 50.728445 9.134073 8.976852 -15.858540 14.561281 -21.633042 5.801381 10.561763 -15.906438 
0.336428 -0.878718 0.980423 -177.674804 0.706731 92.746513 6.494964 4.757486 1.626012 -2.492670 -0.664070 -3.857979 1.728647 10.100090 -10.271895 0.000000 -0.000000 0.000000 -8.185890 -5.875203 -4.549174 2.764513 -7.460417 5.201467 3.776033 -5.675108 -5.914134 0.000000 -0.000000 0.000000 2.706799 0.610355 -5.556689 0.463081 -1.494435 9.113264 -1.745422 0.348710 -4.414340 -2.500694 3.590394 -4.286640 -1.475485 -1.719694 16.304399 -34.499559 -0.388985 2.580521 -53.557769 -7.365001 15.008101 9.056335 -19.837787 -0.704944 -2.941105 -12.684420 -0.936501 35.006619 5.408718 6.888512 50.658815 9.115646 8.929922 -15.852818 14.556737 -21.769605 5.844055 10.628335 -15.818996 
0.336620 -0.878971 0.980327 -177.558333 0.670366 92.779376 6.474533 4.745065 1.582832 -2.504011 -0.701553 -3.943312 1.685033 10.068365 -10.231619 0.000000 -0.000000 0.000000 -8.227184 -5.915907 -4.547184 2.791564 -7.513596 5.162466 3.752579 -5.731888 -5.970815 0.000000 -0.000000 0.000000 2.624477 0.594331 -5.482839 0.444215 -1.482348 9.051502 -1.719298 0.386231 -4.358231 -2.459078 3.672196 -4.325150 -1.571051 -1.722174 16.354370 -34.422396 -0.368394 2.579381 -53.577268 -7.355984 14.990528 9.061259 -19.685567 -0.681463 -2.986526 -12.860562 -0.900032 34.948518 5.386300 6.853750 50.685691 9.124498 8.940961 -15.873740 14.558499 -21.718282 5.680391 10.635049 -15.714546 
0.336892 -0.879459 0.980334 -177.502045 0.663869 92.827094 6.470756 4.697209 1.491201 -2.492861 -0.684350 -3.956233 1.715404 10.095952 -10.217229 0.000000 -0.000000 0.000000 -8.220706 -5.940583 -4.607277 2.792335 -7.540960 5.140375 3.797633 -5.734638 -5.941263 0.000000 -0.000000 0.000000 2.617266 0.615803 -5.443782 0.434379 -1.451605 9.042932 -1.707641 0.395596 -4.275482 -2.533961 3.759679 -4.344522 -1.606691 -1.708244 16.197525 -34.362537 -0.362688 2.573930 -53.592107 -7.396618 14.952419 9.148372 -19.456643 -0.710278 -2.955403 -12.898947 -0.987184 34.875928 5.425020 6.831362 50.695145 9.159554 8.923922 -15.870338 14.412049 -21.681300 5.766079 10.583767 -15.827248 
0.337085 -0.879695 0.980428 -177.421532 0.608132 92.814293 6.415568 4.684740 1.530711 -2.511955 -0.728467 -4.057451 1.724678 10.119360 -10.125839 0.000000 -0.000000 0.000000 -8.266515 -6.002751 -4.555706 2.798650 -7.554008 5.067837 3.776631 -5.712572 -5.887818 0.000000 -0.000000 0.000000 2.560746 0.649692 -5.457466 0.400973 -1.468260 9.230726 -1.710024 0.402908 -4.287073 -2.565152 3.837532 -4.438371 -1.549301 -1.660517 16.231618 -34.392592 -0.387739 2.613175 -53.403906 -7.441558 14.834626 9.166207 -19.331832 -0.703746 -2.967471 -13.184130 -0.892766 34.967140 5.481376 6.902501 50.539785 9.243032 8.815574 -15.889768 14.418117 -21.676771 5.850743 10.713462 -15.762186 
0.337353 -0.880139 0.980564 -177.323371 0.629920 92.894075 6.439070 4.667539 1.350412 -2.522653 -0.742260 -3.968359 1.729903 10.117075 -10.141236 0.000000 -0.000000 0.000000 -8.189608 -5.954912 -4.610087 2.742516 -7.590986 5.007490 3.767786 -5.794635 -5.900148 0.000000 -0.000000 0.000000 2.542673 0.650115 -5.461614 0.425780 -1.495942 9.273288 -1.673389 0.408400 -4.344748 -2.627352 3.842341 -4.330903 -1.562382 -1.524883 16.119280 -34.409785 -0.394324 2.568229 -53.390762 -7.321957 14.856952 9.328883 -19.177241 -0.939562 -2.964903 -12.918598 -0.818662 34.968863 5.563791 6.976706 50.461342 9.227956 8.781023 -15.959169 14.403249 -21.795553 5.943667 10.732721 -15.684909 
0.337564 -0.880266 0.980599 -177.274382 0.665438 92.942341 6.509131 4.657969 1.322744 -2.508504 -0.844013 -4.043346 1.678429 10.044832 -10.084275 0.000000 -0.000000 0.000000 -8.129171 -6.003892 -4.633592 2.759419 -7.572946 4.961180 3.791308 -5.788382 -5.925491 0.000000 -0.000000 0.000000 2.568783 0.697316 -5.463298 0.427788 -1.534791 9.245878 -1.676430 0.420233 -4.316426 -2.622914 3.878305 -4.268068 -1.561821 -1.494546 15.980588 -34.316418 -0.382021 2.503175 -53.462062 -7.235238 14.839590 9.357780 -19.007707 -1.083984 -2.833337 -12.764722 -0.897211 34.909234 5.522672 6.960660 50.514272 9.250928 8.753062 -15.989843 14.411426 -21.730238 5.893665 10.615434 -15.646301 
0.337748 -0.880836 0.980629 -177.262218 0.647549 92.974379 6.502208 4.699561 1.187308 -2.578241 -0.763684 -3.914669 1.734146 10.069217 -10.119794 0.000000 -0.000000 0.000000 -8.128614 -6.027120 -4.748717 2.760550 -7.559275 5.024262 3.797307 -5.810306 -5.935369 0.000000 -0.000000 0.000000 2.536380 0.751238 -5.371709 0.446242 -1.534067 9.278066 -1.694740 0.448529 -4.402964 -2.604924 3.886253 -4.164389 -1.559480 -1.421549 15.908893 -34.314062 -0.472038 2.488753 -53.380727 -7.141267 14.912651 9.395473 -18.968384 -1.251565 -2.635750 -12.161863 -0.805475 34.926500 5.568581 7.014336 50.485554 9.257852 8.751372 -16.027647 14.434692 -21.922117 5.971620 10.515380 -15.662995 
